<svg width="66" height="66" viewBox="0 0 66 66" fill="none" xmlns="http://www.w3.org/2000/svg">
<circle cx="33" cy="33" r="33" fill="#FFF3E0"/>
<g clip-path="url(#clip0)">
<path d="M39.9912 23H19.9912C19.4382 23 18.9912 23.448 18.9912 24V26C18.9912 26.552 19.4382 27 19.9912 27H32.3612C34.2602 25.739 36.5382 25.001 38.9892 25.001C39.6732 25.001 40.3392 25.071 40.9912 25.181V24C40.9912 23.447 40.5442 23 39.9912 23ZM43.9912 18H23.9912C23.4382 18 22.9912 18.448 22.9912 19V21C22.9912 21.553 23.4382 22 23.9912 22H43.9912C44.5442 22 44.9912 21.553 44.9912 21V19C44.9912 18.447 44.5442 18 43.9912 18ZM19.9912 32H28.0882C28.7952 30.463 29.8152 29.104 31.0692 28H19.9912C19.4382 28 18.9912 28.448 18.9912 29V31C18.9912 31.552 19.4382 32 19.9912 32ZM28.6012 43H17.9912C17.4382 43 16.9912 43.446 16.9912 44V46C16.9912 46.553 17.4382 47 17.9912 47H32.3502C30.8112 45.977 29.5302 44.604 28.6012 43ZM19.9912 37H26.9852C26.9852 35.596 27.2392 34.252 27.6832 33H19.9912C19.4382 33 18.9912 33.446 18.9912 34V36C18.9912 36.553 19.4382 37 19.9912 37ZM17.9912 42H28.0862C27.5182 40.764 27.1522 39.418 27.0362 38H17.9912C17.4382 38 16.9912 38.446 16.9912 39V41C16.9912 41.553 17.4382 42 17.9912 42Z" fill="#F1CD71"/>
<path d="M38.9893 27.001C44.5133 27.001 48.9933 31.479 48.9933 37.002C48.9933 42.526 44.5143 47.004 38.9893 47.004C33.4643 47.004 28.9863 42.526 28.9863 37.002C28.9863 31.478 33.4653 27.001 38.9893 27.001Z" fill="#EFC75E"/>
<path d="M39.9894 36.4028C39.5404 36.2218 37.8904 35.9748 37.8904 35.2898C37.8904 34.7818 38.5074 34.6368 38.8774 34.6368C39.2134 34.6368 39.6174 34.7398 39.8304 34.9428C39.9654 35.0658 40.0204 35.1558 40.0654 35.2808C40.1214 35.4268 40.1554 35.5838 40.3684 35.5838H41.4684C41.7264 35.5838 41.7924 35.5388 41.7924 35.2698C41.7924 34.1118 40.8394 33.4588 39.7524 33.2348V32.3348C39.7524 32.1328 39.6854 32.0088 39.4274 32.0088H38.5524C38.2944 32.0088 38.2284 32.1328 38.2284 32.3348V33.1998C37.0624 33.4148 36.0854 34.1118 36.0854 35.3728C36.0854 36.8008 37.1284 37.2508 38.2614 37.6098C39.2134 37.9128 40.2114 37.9238 40.2114 38.5548C40.2114 39.1838 39.7184 39.3188 39.1124 39.3188C38.6974 39.3188 38.2374 39.2168 38.0124 38.9478C37.8664 38.7798 37.8114 38.6348 37.7994 38.4868C37.7784 38.2068 37.6534 38.1738 37.3954 38.1738H36.3074C36.0494 38.1738 35.9834 38.2318 35.9834 38.4868C35.9834 39.7698 37.0594 40.5468 38.2254 40.7948V41.6718C38.2254 41.8748 38.2924 41.9978 38.5514 41.9978H39.4244C39.6844 41.9978 39.7504 41.8748 39.7504 41.6718V40.8178C41.0724 40.6278 41.9804 39.8628 41.9804 38.5118C41.9844 36.9768 40.7964 36.6528 39.9894 36.4028Z" fill="#CBA950"/>
<path d="M38.9795 27.001C33.4565 27.001 28.9775 31.479 28.9775 37.002C28.9775 42.526 33.4565 47.004 38.9795 47.004C44.5045 47.004 48.9835 42.526 48.9835 37.002C48.9835 31.478 44.5065 27.001 38.9795 27.001ZM38.9795 46.004C34.0165 46.004 29.9775 41.966 29.9775 37.002C29.9775 32.039 34.0175 28.001 38.9795 28.001C43.9445 28.001 47.9835 32.039 47.9835 37.002C47.9835 41.966 43.9445 46.004 38.9795 46.004Z" fill="#CBA950"/>
<path d="M22.9912 23H20.9912V27H22.9912V23Z" fill="#CBA950"/>
<path d="M22.9912 28H20.9912V32H22.9912V28Z" fill="#CBA950"/>
<path d="M22.9912 33H20.9912V37H22.9912V33Z" fill="#CBA950"/>
<path d="M26.9912 28H24.9912V32H26.9912V28Z" fill="#CBA950"/>
<path d="M24.9912 38H22.9912V42H24.9912V38Z" fill="#CBA950"/>
<path d="M42.9912 18H40.9912V22H42.9912V18Z" fill="#CBA950"/>
<path d="M30.9912 23H28.9912V27H30.9912V23Z" fill="#CBA950"/>
<path d="M28.9912 28V30.409C29.5592 29.549 30.2252 28.762 30.9912 28.076V28H28.9912ZM26.9912 42H28.0862C27.5182 40.764 27.1522 39.418 27.0362 38H26.9912V42ZM24.9912 33V37H26.9852L26.9912 36.868V33H24.9912Z" fill="#CBA950"/>
<path d="M26.9912 23H24.9912V27H26.9912V23Z" fill="#CBA950"/>
<path d="M38.9912 18H36.9912V22H38.9912V18Z" fill="#CBA950"/>
<path d="M20.9912 38H18.9912V42H20.9912V38Z" fill="#CBA950"/>
<path d="M20.9912 43H18.9912V47H20.9912V43Z" fill="#CBA950"/>
<path d="M28.6012 43H26.9912V47H28.9912V43.593C28.8612 43.396 28.7202 43.205 28.6012 43Z" fill="#CBA950"/>
<path d="M24.9912 43H22.9912V47H24.9912V43Z" fill="#CBA950"/>
<path d="M38.9912 25.001V23.001H36.9912V25.174C37.6402 25.064 38.3062 25.002 38.9892 25.002L38.9912 25.001Z" fill="#CBA950"/>
<path d="M30.9912 18H28.9912V22H30.9912V18Z" fill="#CBA950"/>
<path d="M26.9912 18H24.9912V22H26.9912V18Z" fill="#CBA950"/>
<path d="M34.9912 18H32.9912V22H34.9912V18Z" fill="#CBA950"/>
<path d="M34.9912 25.694V23H32.9912V26.613C33.6232 26.247 34.2932 25.941 34.9912 25.694Z" fill="#CBA950"/>
</g>
<defs>
<clipPath id="clip0">
<rect width="32.002" height="29.004" fill="white" transform="translate(17 18)"/>
</clipPath>
</defs>
</svg>
