<svg width="66" height="66" viewBox="0 0 66 66" fill="none" xmlns="http://www.w3.org/2000/svg">
<circle cx="33" cy="33" r="33" fill="#FFF3E0"/>
<g clip-path="url(#clip0)">
<path d="M41 26.084V35C41 35.553 40.553 36.001 40 36.001H26C25.448 36.001 25 35.553 25 35V26.084H41Z" fill="#533016"/>
<path d="M23 43.667C23 37.776 27.477 32 33 32C38.522 32 43 37.776 43 43.667V45.444C43 47.407 41.372 49 39.363 49H26.637C24.628 49 23 47.407 23 45.444V43.667V43.667Z" fill="#EFC75E"/>
<path d="M32.9979 40.5339C31.9639 38.1099 29.0249 38.6759 29.0049 41.4889C28.9949 43.0339 30.4049 43.6119 31.3439 44.2289C32.2549 44.8289 32.9029 45.6479 33.0039 45.9969C33.0909 45.6549 33.8119 44.8109 34.6559 44.2129C35.5779 43.5569 37.0059 43.0179 36.9939 41.4729C36.9749 38.6519 33.9839 38.2069 32.9979 40.5339Z" fill="#E2574C"/>
<path d="M33 18C37.418 18 41 21.582 41 26C41 30.418 37.418 34 33 34C28.582 34 25 30.417 25 26C25 21.582 28.582 18 33 18Z" fill="#CC9175"/>
<path d="M31.6864 17.106L31.4704 17.136L30.9344 17.254L30.7254 17.303L30.3314 17.426L29.9434 17.558L29.8004 17.616C27.3444 18.623 25.5384 20.827 25.1074 23.902C25.6624 23.959 26.2284 24 26.8124 24C29.7474 24 32.3714 23.272 34.1244 22.129C35.7704 23.202 38.1864 23.9 40.9024 23.983C40.3324 19.633 37.0174 17 33.0004 17C32.7374 17 32.4774 17.013 32.2204 17.036L31.6864 17.106Z" fill="#533016"/>
<path d="M36 25C35.447 25 35 25.448 35 26C35 26.552 35.447 27 36 27C36.553 27 37 26.552 37 26C37 25.448 36.553 25 36 25ZM31 26C31 25.448 30.552 25 30 25C29.448 25 29 25.448 29 26C29 26.552 29.448 27 30 27C30.552 27 31 26.553 31 26ZM35.607 29.032C35.391 29.032 35.213 29.227 35.186 29.48C35.148 29.539 35.028 29.665 34.814 29.784C34.566 29.921 33.25 29.969 33 29.969C32.75 29.969 31.371 29.921 31.124 29.784C30.909 29.665 30.82 29.508 30.782 29.449C30.755 29.196 30.577 29 30.362 29C30.128 29 29.938 29.231 29.938 29.516C29.938 30.338 30.998 31 33 31C35.007 30.938 36.031 30.37 36.031 29.547C36.031 29.263 35.842 29.032 35.607 29.032Z" fill="#88542D"/>
</g>
<defs>
<clipPath id="clip0">
<rect width="20" height="32" fill="white" transform="translate(23 17)"/>
</clipPath>
</defs>
</svg>
