<svg width="66" height="66" viewBox="0 0 66 66" fill="none" xmlns="http://www.w3.org/2000/svg">
<circle cx="33" cy="33" r="33" fill="#FFF3E0"/>
<g clip-path="url(#clip0)">
<path d="M47 30V24C47 22.896 46.104 22 45 22H19C17.896 22 17 22.896 17 24V41C17 42.104 17.896 43 19 43H45C46.104 43 47 42.104 47 41V35C48.104 35 49 34.104 49 33V32C49 30.896 48.105 30 47 30Z" fill="#A66333"/>
<path d="M22 17H42C43.104 17 44 17.896 44 19.001V33C44 34.105 43.104 35 42 35H22C20.896 35 20 34.104 20 33V19.001C20 17.896 20.896 17 22 17V17Z" fill="#E4E7E7"/>
<path d="M26.2641 22.021C26.2641 22.021 27.4771 22 28.6231 22C29.7701 22 29.9731 23.928 29.9731 23.928C29.9731 23.928 29.9941 25.945 29.9941 26.442C29.9941 26.94 29.0071 27.927 29.0071 27.927V28.94L32.0081 30.14V32H22.9941L23.0041 30.101L26.0081 28.95V27.958C26.0081 27.958 25.0101 27.065 25.0101 26.442V23.928C25.0101 23.928 25.0961 22.021 26.2641 22.021Z" fill="#868686"/>
<path d="M40 26H33V28H40V26Z" fill="#B7BBBD"/>
<path d="M40 22H33V24.001H40V22Z" fill="#B7BBBD"/>
<path d="M42 17H22C20.896 17 20 17.896 20 19.001V20H44V19.001C44 17.896 43.105 17 42 17Z" fill="#B7BBBD"/>
<path d="M19 25.001L41 28C42.104 28 43 28.896 43 30V47C43 48.104 42.104 49 41 49L19 46C17.896 46 17 45.104 17 44V23C17 24.112 17.896 25.001 19 25.001Z" fill="#F4B459"/>
<path d="M38.5 35C39.328 35 40 35.672 40 36.5C40 37.328 39.328 38 38.5 38C37.672 38 37 37.329 37 36.5C37 35.671 37.672 35 38.5 35Z" fill="#E4E7E7"/>
<path d="M19 46L41 49C42.104 49 43 48.104 43 47V43L19 40C17.896 40 17 39.111 17 38V44C17 45.105 17.896 46 19 46Z" fill="#D07C40"/>
<path d="M44 34C44 34 49 32.957 49 32V35C49 35 48.104 37 47 37L44 38C42.895 38 42 37.104 42 36C42 34.896 42.896 34 44 34Z" fill="#D07C40"/>
</g>
<defs>
<clipPath id="clip0">
<rect width="32" height="32" fill="white" transform="translate(17 17)"/>
</clipPath>
</defs>
</svg>
