<svg width="66" height="66" viewBox="0 0 66 66" fill="none" xmlns="http://www.w3.org/2000/svg">
<circle cx="33" cy="33" r="33" fill="#FFF3E0"/>
<path d="M33 17C24.094 17 18 21.478 18 27V28C18 28.553 18.448 29 19 29H47C47.553 29 48 28.553 48 28V27C48 21.478 41.914 17 33 17ZM18 45C18 46.105 18.896 47 20 47H46C47.104 47 48 46.105 48 45V43H18V45Z" fill="#DDAF6D"/>
<path d="M19 39H47C48.104 39 49 39.896 49 41C49 42.105 48.104 43 47 43H19C17.896 43 17 42.105 17 41C17 39.896 17.896 39 19 39Z" fill="#BB6F39"/>
<path d="M19 35H47V39H45L42 42L39.004 39H19V35Z" fill="#EFC75E"/>
<path d="M19 29H47V32H19V29Z" fill="#BF392C"/>
<path d="M19 29H21C20.448 29 20 28.553 20 28V27C20 21.688 25.646 17.355 34 17.032C33.668 17.019 33.34 17 33 17C24.094 17 18 21.478 18 27V28C18 28.553 18.448 29 19 29Z" fill="#C69D63"/>
<path d="M20 45V43H18V45C18 46.105 18.896 47 20 47H22C20.896 47 20 46.105 20 45Z" fill="#C69D63"/>
<path d="M21 29H19V32H21V29Z" fill="#AE3C30"/>
<path d="M19.055 35H19V36.949V39H21V36.949C20.021 36.751 19.254 35.979 19.055 35Z" fill="#D7B354"/>
<path d="M47 32.051V32H19V32.051C17.859 32.283 17 33.29 17 34.5C17 35.881 18.119 37 19.5 37C20.71 37 21.718 36.143 21.95 35H26C26 36.104 27.119 37 28.5 37C29.881 37 31 36.104 31 35H35C35 36.104 36.119 37 37.5 37C38.881 37 40 36.104 40 35H44.051C44.282 36.143 45.29 37 46.5 37C47.881 37 49 35.881 49 34.5C49 33.29 48.142 32.283 47 32.051Z" fill="#3DB39E"/>
<path d="M17.088 35.123C17.114 35.225 17.142 35.325 17.18 35.422C17.202 35.477 17.229 35.528 17.255 35.581C17.296 35.666 17.339 35.749 17.389 35.828C17.422 35.88 17.458 35.93 17.494 35.979C17.548 36.051 17.604 36.121 17.665 36.187C17.707 36.233 17.75 36.278 17.796 36.321C17.862 36.383 17.932 36.438 18.004 36.492C18.053 36.529 18.102 36.568 18.154 36.601C18.234 36.652 18.319 36.695 18.405 36.737C18.456 36.762 18.505 36.792 18.558 36.813C18.674 36.86 18.796 36.896 18.92 36.925C18.948 36.933 18.973 36.943 19 36.949C19.162 36.982 19.329 37 19.5 37C19.856 37 20.192 36.918 20.499 36.784C19.618 36.397 19 35.523 19 34.5C19 33.29 19.859 32.283 21 32.051V32H19V32.051C17.859 32.283 17 33.29 17 34.5C17 34.663 17.018 34.821 17.048 34.976C17.058 35.026 17.075 35.074 17.088 35.123Z" fill="#37A18E"/>
<path d="M19 41C19 39.896 19.896 39 21 39H19C17.896 39 17 39.896 17 41C17 42.105 17.896 43 19 43H21C19.896 43 19 42.105 19 41Z" fill="#A86433"/>
</svg>
