<svg width="66" height="66" viewBox="0 0 66 66" fill="none" xmlns="http://www.w3.org/2000/svg">
<circle cx="33" cy="33" r="33" fill="#FFF3E0"/>
<g clip-path="url(#clip0)">
<path d="M37 18H29C27.896 18 27 18.896 27 20V23H29V21C29 20.448 29.447 20 30 20H36C36.553 20 37 20.448 37 21V23H39V20C39 18.897 38.104 18 37 18Z" fill="#324D5B"/>
<path d="M19 23.001H47C48.104 23.001 49 23.897 49 25.002V45.002C49 46.106 48.104 47.002 47 47.002H19C17.896 47.002 17 46.106 17 45.002V25.002C17 23.897 17.896 23.001 19 23.001Z" fill="#E2574C"/>
<path d="M38 33H35V30.002C35 29.449 34.553 29 34 29H32C31.447 29 31 29.449 31 30.002V33H28C27.447 33 27 33.449 27 34V36C27 36.554 27.447 37.002 28 37.002H31V40C31 40.554 31.447 41 32 41H34C34.553 41 35 40.554 35 40V37.002H38C38.553 37.002 39 36.554 39 36V34C39 33.45 38.553 33 38 33Z" fill="white"/>
<path d="M19 23.001C17.896 23.001 17 23.897 17 25.002V30.001L24 23.001H19ZM18.99 47.001H24L17 40V45.002C17 46.103 17.89 46.996 18.99 47.001ZM47 23.001H42L49 30.001V25.002C49 23.897 48.104 23.001 47 23.001ZM47.01 47.001C48.11 46.995 49 46.103 49 45.002V40L42 47.001H47.01Z" fill="#BF392C"/>
</g>
<defs>
<clipPath id="clip0">
<rect width="32" height="29.002" fill="white" transform="translate(17 18)"/>
</clipPath>
</defs>
</svg>
