<svg width="66" height="66" viewBox="0 0 66 66" fill="none" xmlns="http://www.w3.org/2000/svg">
<circle cx="33" cy="33" r="33" fill="#FFF3E0"/>
<path d="M23 19H27C27.553 19 28 19.449 28 20.002V40C28 40.553 27.553 41 27 41H23C22.447 41 22 40.553 22 40V20.001C22 19.449 22.447 19 23 19Z" fill="#3F95D4"/>
<path d="M24 40V20.001C24 19.449 24.447 19 25 19H23C22.447 19 22 19.449 22 20.001V40C22 40.553 22.447 41 23 41H25C24.447 41 24 40.552 24 40Z" fill="#367FB4"/>
<path d="M17 41H49V47H17V41Z" fill="#D99666"/>
<path d="M22 34H28V38.002H22V34Z" fill="#F7CB8B"/>
<path d="M29 15H35C35.553 15 36 15.449 36 16.002V40C36 40.553 35.553 41 35 41H29C28.447 41 28 40.553 28 40V16.001C28 15.449 28.447 15 29 15V15Z" fill="#349886"/>
<path d="M31 37.001H33V23H31V37.001ZM31 19V21H33V19H31Z" fill="#9ACCC3"/>
<path d="M37 21H43C43.553 21 44 21.449 44 22V40C44 40.553 43.553 41 43 41H37C36.447 41 36 40.553 36 40V22C36 21.449 36.447 21 37 21Z" fill="#E2574C"/>
<path d="M24 34H22V38.002H24V34Z" fill="#D2AD77"/>
<path d="M30 40V16.001C30 15.449 30.447 15 31 15H29C28.447 15 28 15.449 28 16.001V40C28 40.553 28.447 41 29 41H31C30.447 41 30 40.552 30 40Z" fill="#2C8172"/>
<path d="M38 40V22C38 21.449 38.447 21 39 21H37C36.447 21 36 21.449 36 22V40C36 40.553 36.447 41 37 41H39C38.447 41 38 40.552 38 40Z" fill="#C04A40"/>
<path d="M36 31H44V27H36V31ZM36 25V26.002H44V25H36Z" fill="#F7CB8B"/>
<path d="M38 25H36V26.002H38V25Z" fill="#D2AD77"/>
<path d="M38 27H36V31H38V27Z" fill="#D2AD77"/>
</svg>
